<mxfile host="app.diagrams.net" agent="Mozilla/5.0 (Windows NT 10.0; Win64; x64) AppleWebKit/537.36 (KHTML, like Gecko) Chrome/131.0.0.0 Safari/537.36" version="25.0.3" pages="2">
  <diagram name="usecase sales" id="6tgGSAJLAA0OoDYMR4_9">
    <mxGraphModel dx="1034" dy="446" grid="1" gridSize="10" guides="1" tooltips="1" connect="1" arrows="1" fold="1" page="1" pageScale="1" pageWidth="850" pageHeight="1100" math="0" shadow="0">
      <root>
        <mxCell id="0" />
        <mxCell id="1" parent="0" />
        <mxCell id="LserlvCtyD8_zDptJSm0-2" value="" style="swimlane;startSize=0;" parent="1" vertex="1">
          <mxGeometry x="120" y="210" width="200" height="410" as="geometry" />
        </mxCell>
        <mxCell id="LserlvCtyD8_zDptJSm0-9" value="mengelola pemesanan" style="ellipse;whiteSpace=wrap;html=1;" parent="LserlvCtyD8_zDptJSm0-2" vertex="1">
          <mxGeometry x="40" y="10" width="130" height="35" as="geometry" />
        </mxCell>
        <mxCell id="LserlvCtyD8_zDptJSm0-10" value="mengelola penjualan" style="ellipse;whiteSpace=wrap;html=1;" parent="LserlvCtyD8_zDptJSm0-2" vertex="1">
          <mxGeometry x="30" y="60" width="140" height="40" as="geometry" />
        </mxCell>
        <mxCell id="eQ36pcEG8jeoUkwzqTD4-1" value="mengelola akun pelanggan" style="ellipse;whiteSpace=wrap;html=1;" parent="LserlvCtyD8_zDptJSm0-2" vertex="1">
          <mxGeometry x="30" y="110" width="140" height="40" as="geometry" />
        </mxCell>
        <mxCell id="eQ36pcEG8jeoUkwzqTD4-3" value="mengelola invoice" style="ellipse;whiteSpace=wrap;html=1;" parent="LserlvCtyD8_zDptJSm0-2" vertex="1">
          <mxGeometry x="30" y="160" width="140" height="40" as="geometry" />
        </mxCell>
        <mxCell id="eQ36pcEG8jeoUkwzqTD4-4" value="mengelola produk" style="ellipse;whiteSpace=wrap;html=1;" parent="LserlvCtyD8_zDptJSm0-2" vertex="1">
          <mxGeometry x="30" y="210" width="140" height="40" as="geometry" />
        </mxCell>
        <mxCell id="eQ36pcEG8jeoUkwzqTD4-5" value="mengelola pricelist" style="ellipse;whiteSpace=wrap;html=1;" parent="LserlvCtyD8_zDptJSm0-2" vertex="1">
          <mxGeometry x="30" y="260" width="140" height="40" as="geometry" />
        </mxCell>
        <mxCell id="eQ36pcEG8jeoUkwzqTD4-6" value="mengelola laporan penjualan" style="ellipse;whiteSpace=wrap;html=1;" parent="LserlvCtyD8_zDptJSm0-2" vertex="1">
          <mxGeometry x="30" y="310" width="140" height="40" as="geometry" />
        </mxCell>
        <mxCell id="eQ36pcEG8jeoUkwzqTD4-7" value="mengelola pengaturan" style="ellipse;whiteSpace=wrap;html=1;" parent="LserlvCtyD8_zDptJSm0-2" vertex="1">
          <mxGeometry x="30" y="360" width="140" height="40" as="geometry" />
        </mxCell>
        <mxCell id="LserlvCtyD8_zDptJSm0-3" value="Admin" style="shape=umlActor;verticalLabelPosition=bottom;verticalAlign=top;html=1;outlineConnect=0;" parent="1" vertex="1">
          <mxGeometry x="50" y="340" width="30" height="60" as="geometry" />
        </mxCell>
        <mxCell id="eQ36pcEG8jeoUkwzqTD4-9" value="" style="endArrow=none;html=1;rounded=0;entryX=0;entryY=0.5;entryDx=0;entryDy=0;" parent="1" target="LserlvCtyD8_zDptJSm0-9" edge="1">
          <mxGeometry width="50" height="50" relative="1" as="geometry">
            <mxPoint x="80" y="360" as="sourcePoint" />
            <mxPoint x="450" y="510" as="targetPoint" />
          </mxGeometry>
        </mxCell>
        <mxCell id="eQ36pcEG8jeoUkwzqTD4-10" value="" style="endArrow=none;html=1;rounded=0;entryX=0;entryY=0.5;entryDx=0;entryDy=0;exitX=1;exitY=0.3333333333333333;exitDx=0;exitDy=0;exitPerimeter=0;" parent="1" source="LserlvCtyD8_zDptJSm0-3" target="LserlvCtyD8_zDptJSm0-10" edge="1">
          <mxGeometry width="50" height="50" relative="1" as="geometry">
            <mxPoint x="360" y="400" as="sourcePoint" />
            <mxPoint x="440" y="291" as="targetPoint" />
          </mxGeometry>
        </mxCell>
        <mxCell id="eQ36pcEG8jeoUkwzqTD4-11" value="" style="endArrow=none;html=1;rounded=0;entryX=0;entryY=0.5;entryDx=0;entryDy=0;exitX=1;exitY=0.3333333333333333;exitDx=0;exitDy=0;exitPerimeter=0;" parent="1" source="LserlvCtyD8_zDptJSm0-3" target="eQ36pcEG8jeoUkwzqTD4-1" edge="1">
          <mxGeometry width="50" height="50" relative="1" as="geometry">
            <mxPoint x="80" y="370" as="sourcePoint" />
            <mxPoint x="490" y="291" as="targetPoint" />
          </mxGeometry>
        </mxCell>
        <mxCell id="eQ36pcEG8jeoUkwzqTD4-12" value="" style="endArrow=none;html=1;rounded=0;entryX=0;entryY=0.5;entryDx=0;entryDy=0;exitX=1;exitY=0.3333333333333333;exitDx=0;exitDy=0;exitPerimeter=0;" parent="1" source="LserlvCtyD8_zDptJSm0-3" target="eQ36pcEG8jeoUkwzqTD4-3" edge="1">
          <mxGeometry width="50" height="50" relative="1" as="geometry">
            <mxPoint x="90" y="380" as="sourcePoint" />
            <mxPoint x="170" y="271" as="targetPoint" />
          </mxGeometry>
        </mxCell>
        <mxCell id="eQ36pcEG8jeoUkwzqTD4-13" value="" style="endArrow=none;html=1;rounded=0;entryX=0;entryY=0.5;entryDx=0;entryDy=0;exitX=1;exitY=0.3333333333333333;exitDx=0;exitDy=0;exitPerimeter=0;" parent="1" source="LserlvCtyD8_zDptJSm0-3" target="eQ36pcEG8jeoUkwzqTD4-4" edge="1">
          <mxGeometry width="50" height="50" relative="1" as="geometry">
            <mxPoint x="110" y="400" as="sourcePoint" />
            <mxPoint x="190" y="291" as="targetPoint" />
          </mxGeometry>
        </mxCell>
        <mxCell id="eQ36pcEG8jeoUkwzqTD4-14" value="" style="endArrow=none;html=1;rounded=0;entryX=0;entryY=0.5;entryDx=0;entryDy=0;" parent="1" target="eQ36pcEG8jeoUkwzqTD4-5" edge="1">
          <mxGeometry width="50" height="50" relative="1" as="geometry">
            <mxPoint x="80" y="360" as="sourcePoint" />
            <mxPoint x="190" y="321" as="targetPoint" />
          </mxGeometry>
        </mxCell>
        <mxCell id="eQ36pcEG8jeoUkwzqTD4-15" value="" style="endArrow=none;html=1;rounded=0;entryX=0;entryY=0.5;entryDx=0;entryDy=0;" parent="1" target="eQ36pcEG8jeoUkwzqTD4-6" edge="1">
          <mxGeometry width="50" height="50" relative="1" as="geometry">
            <mxPoint x="80" y="360" as="sourcePoint" />
            <mxPoint x="170" y="341" as="targetPoint" />
          </mxGeometry>
        </mxCell>
        <mxCell id="eQ36pcEG8jeoUkwzqTD4-16" value="" style="endArrow=none;html=1;rounded=0;entryX=0;entryY=0.5;entryDx=0;entryDy=0;exitX=1;exitY=0.3333333333333333;exitDx=0;exitDy=0;exitPerimeter=0;" parent="1" source="LserlvCtyD8_zDptJSm0-3" target="eQ36pcEG8jeoUkwzqTD4-7" edge="1">
          <mxGeometry width="50" height="50" relative="1" as="geometry">
            <mxPoint x="90" y="510" as="sourcePoint" />
            <mxPoint x="170" y="401" as="targetPoint" />
          </mxGeometry>
        </mxCell>
      </root>
    </mxGraphModel>
  </diagram>
  <diagram id="FmI4WmQUlaSarkUIlDA7" name="Page-2">
    <mxGraphModel dx="1034" dy="446" grid="1" gridSize="10" guides="1" tooltips="1" connect="1" arrows="1" fold="1" page="1" pageScale="1" pageWidth="850" pageHeight="1100" math="0" shadow="0">
      <root>
        <mxCell id="0" />
        <mxCell id="1" parent="0" />
        <mxCell id="e97K7gR1SNOlzVb027F4-1" value="" style="swimlane;startSize=0;" vertex="1" parent="1">
          <mxGeometry x="160" y="100" width="200" height="410" as="geometry" />
        </mxCell>
        <mxCell id="e97K7gR1SNOlzVb027F4-2" value="mengelola pemesanan" style="ellipse;whiteSpace=wrap;html=1;" vertex="1" parent="e97K7gR1SNOlzVb027F4-1">
          <mxGeometry x="40" y="10" width="130" height="35" as="geometry" />
        </mxCell>
        <mxCell id="e97K7gR1SNOlzVb027F4-3" value="mengelola penjualan" style="ellipse;whiteSpace=wrap;html=1;" vertex="1" parent="e97K7gR1SNOlzVb027F4-1">
          <mxGeometry x="30" y="60" width="140" height="40" as="geometry" />
        </mxCell>
        <mxCell id="e97K7gR1SNOlzVb027F4-4" value="mengelola akun pelanggan" style="ellipse;whiteSpace=wrap;html=1;" vertex="1" parent="e97K7gR1SNOlzVb027F4-1">
          <mxGeometry x="30" y="110" width="140" height="40" as="geometry" />
        </mxCell>
        <mxCell id="e97K7gR1SNOlzVb027F4-5" value="mengelola invoice" style="ellipse;whiteSpace=wrap;html=1;" vertex="1" parent="e97K7gR1SNOlzVb027F4-1">
          <mxGeometry x="30" y="160" width="140" height="40" as="geometry" />
        </mxCell>
        <mxCell id="e97K7gR1SNOlzVb027F4-6" value="mengelola produk" style="ellipse;whiteSpace=wrap;html=1;" vertex="1" parent="e97K7gR1SNOlzVb027F4-1">
          <mxGeometry x="30" y="210" width="140" height="40" as="geometry" />
        </mxCell>
        <mxCell id="e97K7gR1SNOlzVb027F4-7" value="mengelola pricelist" style="ellipse;whiteSpace=wrap;html=1;" vertex="1" parent="e97K7gR1SNOlzVb027F4-1">
          <mxGeometry x="30" y="260" width="140" height="40" as="geometry" />
        </mxCell>
        <mxCell id="e97K7gR1SNOlzVb027F4-8" value="mengelola laporan penjualan" style="ellipse;whiteSpace=wrap;html=1;" vertex="1" parent="e97K7gR1SNOlzVb027F4-1">
          <mxGeometry x="30" y="310" width="140" height="40" as="geometry" />
        </mxCell>
        <mxCell id="e97K7gR1SNOlzVb027F4-9" value="mengelola pengaturan" style="ellipse;whiteSpace=wrap;html=1;" vertex="1" parent="e97K7gR1SNOlzVb027F4-1">
          <mxGeometry x="30" y="360" width="140" height="40" as="geometry" />
        </mxCell>
        <mxCell id="e97K7gR1SNOlzVb027F4-10" value="Admin" style="shape=umlActor;verticalLabelPosition=bottom;verticalAlign=top;html=1;outlineConnect=0;" vertex="1" parent="1">
          <mxGeometry x="90" y="230" width="30" height="60" as="geometry" />
        </mxCell>
        <mxCell id="e97K7gR1SNOlzVb027F4-11" value="" style="endArrow=none;html=1;rounded=0;entryX=0;entryY=0.5;entryDx=0;entryDy=0;" edge="1" parent="1" target="e97K7gR1SNOlzVb027F4-2">
          <mxGeometry width="50" height="50" relative="1" as="geometry">
            <mxPoint x="120" y="250" as="sourcePoint" />
            <mxPoint x="490" y="400" as="targetPoint" />
          </mxGeometry>
        </mxCell>
        <mxCell id="e97K7gR1SNOlzVb027F4-12" value="" style="endArrow=none;html=1;rounded=0;entryX=0;entryY=0.5;entryDx=0;entryDy=0;exitX=1;exitY=0.3333333333333333;exitDx=0;exitDy=0;exitPerimeter=0;" edge="1" parent="1" source="e97K7gR1SNOlzVb027F4-10" target="e97K7gR1SNOlzVb027F4-3">
          <mxGeometry width="50" height="50" relative="1" as="geometry">
            <mxPoint x="400" y="290" as="sourcePoint" />
            <mxPoint x="480" y="181" as="targetPoint" />
          </mxGeometry>
        </mxCell>
        <mxCell id="e97K7gR1SNOlzVb027F4-13" value="" style="endArrow=none;html=1;rounded=0;entryX=0;entryY=0.5;entryDx=0;entryDy=0;exitX=1;exitY=0.3333333333333333;exitDx=0;exitDy=0;exitPerimeter=0;" edge="1" parent="1" source="e97K7gR1SNOlzVb027F4-10" target="e97K7gR1SNOlzVb027F4-4">
          <mxGeometry width="50" height="50" relative="1" as="geometry">
            <mxPoint x="120" y="260" as="sourcePoint" />
            <mxPoint x="530" y="181" as="targetPoint" />
          </mxGeometry>
        </mxCell>
        <mxCell id="e97K7gR1SNOlzVb027F4-14" value="" style="endArrow=none;html=1;rounded=0;entryX=0;entryY=0.5;entryDx=0;entryDy=0;exitX=1;exitY=0.3333333333333333;exitDx=0;exitDy=0;exitPerimeter=0;" edge="1" parent="1" source="e97K7gR1SNOlzVb027F4-10" target="e97K7gR1SNOlzVb027F4-5">
          <mxGeometry width="50" height="50" relative="1" as="geometry">
            <mxPoint x="130" y="270" as="sourcePoint" />
            <mxPoint x="210" y="161" as="targetPoint" />
          </mxGeometry>
        </mxCell>
        <mxCell id="e97K7gR1SNOlzVb027F4-15" value="" style="endArrow=none;html=1;rounded=0;entryX=0;entryY=0.5;entryDx=0;entryDy=0;exitX=1;exitY=0.3333333333333333;exitDx=0;exitDy=0;exitPerimeter=0;" edge="1" parent="1" source="e97K7gR1SNOlzVb027F4-10" target="e97K7gR1SNOlzVb027F4-6">
          <mxGeometry width="50" height="50" relative="1" as="geometry">
            <mxPoint x="150" y="290" as="sourcePoint" />
            <mxPoint x="230" y="181" as="targetPoint" />
          </mxGeometry>
        </mxCell>
        <mxCell id="e97K7gR1SNOlzVb027F4-16" value="" style="endArrow=none;html=1;rounded=0;entryX=0;entryY=0.5;entryDx=0;entryDy=0;" edge="1" parent="1" target="e97K7gR1SNOlzVb027F4-7">
          <mxGeometry width="50" height="50" relative="1" as="geometry">
            <mxPoint x="120" y="250" as="sourcePoint" />
            <mxPoint x="230" y="211" as="targetPoint" />
          </mxGeometry>
        </mxCell>
        <mxCell id="e97K7gR1SNOlzVb027F4-17" value="" style="endArrow=none;html=1;rounded=0;entryX=0;entryY=0.5;entryDx=0;entryDy=0;" edge="1" parent="1" target="e97K7gR1SNOlzVb027F4-8">
          <mxGeometry width="50" height="50" relative="1" as="geometry">
            <mxPoint x="120" y="250" as="sourcePoint" />
            <mxPoint x="210" y="231" as="targetPoint" />
          </mxGeometry>
        </mxCell>
        <mxCell id="e97K7gR1SNOlzVb027F4-18" value="" style="endArrow=none;html=1;rounded=0;entryX=0;entryY=0.5;entryDx=0;entryDy=0;exitX=1;exitY=0.3333333333333333;exitDx=0;exitDy=0;exitPerimeter=0;" edge="1" parent="1" source="e97K7gR1SNOlzVb027F4-10" target="e97K7gR1SNOlzVb027F4-9">
          <mxGeometry width="50" height="50" relative="1" as="geometry">
            <mxPoint x="130" y="400" as="sourcePoint" />
            <mxPoint x="210" y="291" as="targetPoint" />
          </mxGeometry>
        </mxCell>
      </root>
    </mxGraphModel>
  </diagram>
</mxfile>
